<mxfile host="Electron" agent="Mozilla/5.0 (Windows NT 10.0; Win64; x64) AppleWebKit/537.36 (KHTML, like Gecko) draw.io/27.0.2 Chrome/134.0.6998.205 Electron/35.3.0 Safari/537.36" version="27.0.2">
  <diagram name="Page-1" id="ad52d381-51e7-2e0d-a935-2d0ddd2fd229">
    <mxGraphModel dx="1410" dy="856" grid="1" gridSize="10" guides="1" tooltips="1" connect="1" arrows="1" fold="1" page="1" pageScale="1" pageWidth="1169" pageHeight="827" background="none" math="0" shadow="0">
      <root>
        <mxCell id="0" />
        <mxCell id="1" parent="0" />
        <mxCell id="9PcxYXo_8FLNhXGX4yDR-6" value="&lt;h1&gt;書籍&lt;/h1&gt;" style="rounded=0;whiteSpace=wrap;html=1;fillColor=#dae8fc;strokeColor=#6c8ebf;" parent="1" vertex="1">
          <mxGeometry x="660" y="350" width="120" height="60" as="geometry" />
        </mxCell>
        <mxCell id="9PcxYXo_8FLNhXGX4yDR-7" value="&lt;h2&gt;&lt;u&gt;編號&lt;/u&gt;&lt;/h2&gt;" style="ellipse;whiteSpace=wrap;html=1;" parent="1" vertex="1">
          <mxGeometry x="650" y="220" width="80" height="50" as="geometry" />
        </mxCell>
        <mxCell id="9PcxYXo_8FLNhXGX4yDR-8" value="&lt;h2&gt;&lt;span style=&quot;font-weight: normal;&quot;&gt;書名&lt;/span&gt;&lt;/h2&gt;" style="ellipse;whiteSpace=wrap;html=1;" parent="1" vertex="1">
          <mxGeometry x="780" y="220" width="80" height="50" as="geometry" />
        </mxCell>
        <mxCell id="9PcxYXo_8FLNhXGX4yDR-9" value="&lt;h2&gt;&lt;span style=&quot;font-weight: normal;&quot;&gt;作者&lt;/span&gt;&lt;/h2&gt;" style="ellipse;whiteSpace=wrap;html=1;" parent="1" vertex="1">
          <mxGeometry x="900" y="370" width="80" height="50" as="geometry" />
        </mxCell>
        <mxCell id="9PcxYXo_8FLNhXGX4yDR-10" value="&lt;h2&gt;&lt;span style=&quot;font-weight: normal;&quot;&gt;價格&lt;/span&gt;&lt;/h2&gt;" style="ellipse;whiteSpace=wrap;html=1;" parent="1" vertex="1">
          <mxGeometry x="880" y="290" width="80" height="50" as="geometry" />
        </mxCell>
        <mxCell id="9PcxYXo_8FLNhXGX4yDR-11" value="" style="endArrow=none;html=1;rounded=0;" parent="1" source="9PcxYXo_8FLNhXGX4yDR-10" target="9PcxYXo_8FLNhXGX4yDR-6" edge="1">
          <mxGeometry width="50" height="50" relative="1" as="geometry">
            <mxPoint x="670" y="460" as="sourcePoint" />
            <mxPoint x="720" y="410" as="targetPoint" />
            <Array as="points" />
          </mxGeometry>
        </mxCell>
        <mxCell id="9PcxYXo_8FLNhXGX4yDR-12" value="" style="endArrow=none;html=1;rounded=0;entryX=1;entryY=0.5;entryDx=0;entryDy=0;" parent="1" source="9PcxYXo_8FLNhXGX4yDR-9" target="9PcxYXo_8FLNhXGX4yDR-6" edge="1">
          <mxGeometry width="50" height="50" relative="1" as="geometry">
            <mxPoint x="670" y="460" as="sourcePoint" />
            <mxPoint x="720" y="410" as="targetPoint" />
            <Array as="points" />
          </mxGeometry>
        </mxCell>
        <mxCell id="9PcxYXo_8FLNhXGX4yDR-14" value="" style="endArrow=none;html=1;rounded=0;entryX=0.5;entryY=1;entryDx=0;entryDy=0;exitX=0.633;exitY=0;exitDx=0;exitDy=0;exitPerimeter=0;" parent="1" source="9PcxYXo_8FLNhXGX4yDR-6" target="9PcxYXo_8FLNhXGX4yDR-8" edge="1">
          <mxGeometry width="50" height="50" relative="1" as="geometry">
            <mxPoint x="670" y="460" as="sourcePoint" />
            <mxPoint x="720" y="410" as="targetPoint" />
          </mxGeometry>
        </mxCell>
        <mxCell id="9PcxYXo_8FLNhXGX4yDR-15" value="" style="endArrow=none;html=1;rounded=0;entryX=0.5;entryY=1;entryDx=0;entryDy=0;" parent="1" source="9PcxYXo_8FLNhXGX4yDR-6" target="9PcxYXo_8FLNhXGX4yDR-7" edge="1">
          <mxGeometry width="50" height="50" relative="1" as="geometry">
            <mxPoint x="670" y="460" as="sourcePoint" />
            <mxPoint x="720" y="410" as="targetPoint" />
          </mxGeometry>
        </mxCell>
        <mxCell id="9PcxYXo_8FLNhXGX4yDR-16" value="&lt;h1&gt;訂購&lt;/h1&gt;" style="rhombus;whiteSpace=wrap;html=1;fillColor=#fff2cc;strokeColor=#d6b656;" parent="1" vertex="1">
          <mxGeometry x="500" y="345" width="110" height="70" as="geometry" />
        </mxCell>
        <mxCell id="9PcxYXo_8FLNhXGX4yDR-17" value="" style="endArrow=none;html=1;rounded=0;" parent="1" source="9PcxYXo_8FLNhXGX4yDR-6" target="9PcxYXo_8FLNhXGX4yDR-16" edge="1">
          <mxGeometry width="50" height="50" relative="1" as="geometry">
            <mxPoint x="670" y="460" as="sourcePoint" />
            <mxPoint x="720" y="410" as="targetPoint" />
          </mxGeometry>
        </mxCell>
        <mxCell id="9PcxYXo_8FLNhXGX4yDR-19" value="&lt;h1 style=&quot;&quot;&gt;&lt;font style=&quot;font-size: 16px;&quot;&gt;M&lt;/font&gt;&lt;/h1&gt;" style="edgeLabel;html=1;align=center;verticalAlign=bottom;resizable=0;points=[];fontSize=11;labelBackgroundColor=none;textShadow=0;fontColor=default;" parent="9PcxYXo_8FLNhXGX4yDR-17" vertex="1" connectable="0">
          <mxGeometry x="0.4267" y="3" relative="1" as="geometry">
            <mxPoint x="-193" y="17" as="offset" />
          </mxGeometry>
        </mxCell>
        <mxCell id="9PcxYXo_8FLNhXGX4yDR-20" value="&lt;h1&gt;書局&lt;/h1&gt;" style="rounded=0;whiteSpace=wrap;html=1;fillColor=#dae8fc;strokeColor=#6c8ebf;" parent="1" vertex="1">
          <mxGeometry x="330" y="350" width="120" height="60" as="geometry" />
        </mxCell>
        <mxCell id="9PcxYXo_8FLNhXGX4yDR-24" value="&lt;h2&gt;&lt;span style=&quot;font-weight: normal;&quot;&gt;出版社&lt;/span&gt;&lt;/h2&gt;" style="ellipse;whiteSpace=wrap;html=1;" parent="1" vertex="1">
          <mxGeometry x="760" y="450" width="80" height="50" as="geometry" />
        </mxCell>
        <mxCell id="9PcxYXo_8FLNhXGX4yDR-21" value="" style="endArrow=none;html=1;rounded=0;entryX=1;entryY=0.5;entryDx=0;entryDy=0;exitX=0;exitY=0.5;exitDx=0;exitDy=0;" parent="1" source="9PcxYXo_8FLNhXGX4yDR-16" target="9PcxYXo_8FLNhXGX4yDR-20" edge="1">
          <mxGeometry width="50" height="50" relative="1" as="geometry">
            <mxPoint x="580" y="380" as="sourcePoint" />
            <mxPoint x="720" y="310" as="targetPoint" />
          </mxGeometry>
        </mxCell>
        <mxCell id="9PcxYXo_8FLNhXGX4yDR-25" value="" style="endArrow=none;html=1;rounded=0;entryX=0.75;entryY=1;entryDx=0;entryDy=0;" parent="1" source="9PcxYXo_8FLNhXGX4yDR-24" target="9PcxYXo_8FLNhXGX4yDR-6" edge="1">
          <mxGeometry width="50" height="50" relative="1" as="geometry">
            <mxPoint x="510" y="450" as="sourcePoint" />
            <mxPoint x="560" y="400" as="targetPoint" />
          </mxGeometry>
        </mxCell>
        <mxCell id="YDW3wuicVFt5JyDYn-ji-1" value="&lt;h1 style=&quot;&quot;&gt;&lt;font style=&quot;font-size: 16px;&quot;&gt;N&lt;/font&gt;&lt;/h1&gt;" style="edgeLabel;html=1;align=center;verticalAlign=bottom;resizable=0;points=[];fontSize=11;labelBackgroundColor=none;textShadow=0;fontColor=default;" parent="1" vertex="1" connectable="0">
          <mxGeometry x="620" y="395" as="geometry" />
        </mxCell>
        <mxCell id="YDW3wuicVFt5JyDYn-ji-2" value="&lt;h2&gt;&lt;u&gt;編號&lt;/u&gt;&lt;/h2&gt;" style="ellipse;whiteSpace=wrap;html=1;" parent="1" vertex="1">
          <mxGeometry x="430" y="210" width="80" height="50" as="geometry" />
        </mxCell>
        <mxCell id="YDW3wuicVFt5JyDYn-ji-3" value="&lt;h2&gt;&lt;span style=&quot;font-weight: normal;&quot;&gt;名稱&lt;/span&gt;&lt;/h2&gt;" style="ellipse;whiteSpace=wrap;html=1;" parent="1" vertex="1">
          <mxGeometry x="240" y="470" width="80" height="50" as="geometry" />
        </mxCell>
        <mxCell id="YDW3wuicVFt5JyDYn-ji-4" value="&lt;h2&gt;&lt;span style=&quot;font-weight: normal;&quot;&gt;排名&lt;/span&gt;&lt;/h2&gt;" style="ellipse;whiteSpace=wrap;html=1;" parent="1" vertex="1">
          <mxGeometry x="270" y="210" width="80" height="50" as="geometry" />
        </mxCell>
        <mxCell id="YDW3wuicVFt5JyDYn-ji-5" value="&lt;h2&gt;&lt;span style=&quot;font-weight: normal;&quot;&gt;座落城市&lt;/span&gt;&lt;/h2&gt;" style="ellipse;whiteSpace=wrap;html=1;" parent="1" vertex="1">
          <mxGeometry x="430" y="480" width="80" height="50" as="geometry" />
        </mxCell>
        <mxCell id="YDW3wuicVFt5JyDYn-ji-6" value="" style="endArrow=none;html=1;rounded=0;entryX=0.692;entryY=-0.05;entryDx=0;entryDy=0;entryPerimeter=0;" parent="1" source="YDW3wuicVFt5JyDYn-ji-2" target="9PcxYXo_8FLNhXGX4yDR-20" edge="1">
          <mxGeometry width="50" height="50" relative="1" as="geometry">
            <mxPoint x="670" y="460" as="sourcePoint" />
            <mxPoint x="720" y="410" as="targetPoint" />
          </mxGeometry>
        </mxCell>
        <mxCell id="YDW3wuicVFt5JyDYn-ji-7" value="" style="endArrow=none;html=1;rounded=0;entryX=0.738;entryY=0.1;entryDx=0;entryDy=0;exitX=0.308;exitY=1.017;exitDx=0;exitDy=0;exitPerimeter=0;entryPerimeter=0;" parent="1" source="9PcxYXo_8FLNhXGX4yDR-20" edge="1" target="YDW3wuicVFt5JyDYn-ji-3">
          <mxGeometry width="50" height="50" relative="1" as="geometry">
            <mxPoint x="350" y="350" as="sourcePoint" />
            <mxPoint x="860" y="280" as="targetPoint" />
          </mxGeometry>
        </mxCell>
        <mxCell id="YDW3wuicVFt5JyDYn-ji-9" value="" style="endArrow=none;html=1;rounded=0;entryX=0.5;entryY=1;entryDx=0;entryDy=0;exitX=0.25;exitY=0;exitDx=0;exitDy=0;" parent="1" source="9PcxYXo_8FLNhXGX4yDR-20" target="YDW3wuicVFt5JyDYn-ji-4" edge="1">
          <mxGeometry width="50" height="50" relative="1" as="geometry">
            <mxPoint x="870" y="380" as="sourcePoint" />
            <mxPoint x="920" y="330" as="targetPoint" />
          </mxGeometry>
        </mxCell>
        <mxCell id="YDW3wuicVFt5JyDYn-ji-10" value="" style="endArrow=none;html=1;rounded=0;exitX=0.5;exitY=0;exitDx=0;exitDy=0;" parent="1" source="YDW3wuicVFt5JyDYn-ji-5" target="9PcxYXo_8FLNhXGX4yDR-20" edge="1">
          <mxGeometry width="50" height="50" relative="1" as="geometry">
            <mxPoint x="820" y="460" as="sourcePoint" />
            <mxPoint x="870" y="410" as="targetPoint" />
          </mxGeometry>
        </mxCell>
        <mxCell id="GXVXywpqwzU4rj9y6U1e-1" value="&lt;h1 style=&quot;&quot;&gt;&lt;font style=&quot;font-size: 16px;&quot;&gt;M&lt;/font&gt;&lt;/h1&gt;" style="edgeLabel;html=1;align=center;verticalAlign=bottom;resizable=0;points=[];fontSize=11;labelBackgroundColor=none;textShadow=0;fontColor=default;" vertex="1" connectable="0" parent="1">
          <mxGeometry x="490" y="395" as="geometry" />
        </mxCell>
      </root>
    </mxGraphModel>
  </diagram>
</mxfile>
